<svg id="SvgjsSvg1001" width="288" height="288" xmlns="http://www.w3.org/2000/svg" version="1.1" xmlns:xlink="http://www.w3.org/1999/xlink" xmlns:svgjs="http://svgjs.com/svgjs"><defs id="SvgjsDefs1002"></defs><g id="SvgjsG1008" transform="matrix(1,0,0,1,0,0)"><svg xmlns="http://www.w3.org/2000/svg" width="288" height="288" viewBox="0 0 32 32"><path d="M 29.601562 3.0039062 C 29.211247 2.9759062 28.809577 3.0618844 28.447266 3.2714844 L 27.154297 4.0195312 L 27.148438 4.0195312 A 0.50004994 0.50004994 0 0 0 27.123047 4.03125 L 20.740234 7.71875 C 18.550224 5.3854027 15.448365 3.9179688 12 3.9179688 C 5.3785055 3.9179688 0 9.2964683 0 15.917969 C 0 22.539469 5.3785055 27.917969 12 27.917969 C 18.621495 27.917969 24 22.539469 24 15.917969 C 24 14.571624 23.769336 13.281068 23.359375 12.072266 L 29.628906 8.4511719 L 29.632812 8.4511719 A 0.50004994 0.50004994 0 0 0 29.662109 8.4355469 L 30.986328 7.6699219 C 31.952536 7.1119219 32.288156 5.8649375 31.730469 4.8984375 L 31.220703 4.0136719 C 30.941858 3.5303719 30.488919 3.2031594 29.986328 3.0683594 C 29.86068 3.0343594 29.731669 3.0129063 29.601562 3.0039062 z M 29.337891 4.0019531 C 29.470783 3.9849531 29.604162 3.9922969 29.730469 4.0292969 C 29.983083 4.0972969 30.208741 4.2627719 30.353516 4.5136719 L 30.863281 5.3984375 C 31.151375 5.8999375 30.986975 6.5154875 30.486328 6.8046875 L 29.595703 7.3203125 L 28.056641 4.6523438 L 28.947266 4.1367188 C 29.072591 4.0647187 29.204998 4.0191531 29.337891 4.0019531 z M 12 4.9179688 C 15.083883 4.9179688 17.86517 6.1864362 19.861328 8.2265625 L 18.005859 9.296875 C 16.409818 7.8658655 14.308781 6.9882812 12 6.9882812 C 7.0280106 6.9882812 2.9863431 11.028 2.9863281 16 C 2.9863431 20.972 7.0280106 25.013672 12 25.013672 C 16.97199 25.013672 21.013657 20.972 21.013672 16 C 21.013669 15.17458 20.892141 14.378955 20.683594 13.619141 L 22.482422 12.580078 C 22.816749 13.63289 23 14.753559 23 15.917969 C 23 21.999069 18.081055 26.917969 12 26.917969 C 5.9189456 26.917969 1 21.999069 1 15.917969 C 1 9.8368682 5.9189456 4.9179688 12 4.9179688 z M 27.191406 5.1523438 L 27.710938 6.0527344 L 16.4375 12.564453 L 16.214844 12.693359 L 15.695312 11.792969 L 27.191406 5.1523438 z M 28.210938 6.9199219 L 28.730469 7.8203125 L 17.234375 14.460938 L 16.714844 13.560547 L 16.939453 13.429688 L 28.210938 6.9199219 z M 12 7.9882812 C 13.940795 7.9882812 15.718105 8.6761698 17.103516 9.8203125 L 15.189453 10.923828 C 14.264104 10.339886 13.172326 9.9980469 12 9.9980469 C 8.6924901 9.9980469 5.999975 12.690447 6 15.998047 C 6.000044 19.305347 8.6925389 22.001953 12 22.001953 C 15.307461 22.001953 17.999956 19.305347 18 15.998047 C 18.000002 15.728127 17.976136 15.463724 17.941406 15.203125 L 19.789062 14.136719 C 19.931407 14.735259 20.01367 15.357328 20.013672 16 C 20.013658 20.4316 16.431551 24.013672 12 24.013672 C 7.5684496 24.013672 3.9863415 20.4316 3.9863281 16 C 3.9863415 11.5685 7.5684496 7.9882812 12 7.9882812 z M 12 11.134766 C 12.847034 11.134766 13.62982 11.368316 14.322266 11.746094 L 13.310547 13.279297 C 12.907969 13.071724 12.460009 12.943359 11.978516 12.943359 C 10.334064 12.943359 9.0000294 14.311256 9 15.972656 C 9.0000294 17.634256 10.334117 19 11.978516 19 C 13.622935 19 14.957031 17.634256 14.957031 15.972656 C 14.957031 15.903236 14.94208 15.837851 14.9375 15.769531 L 16.847656 15.654297 C 16.855556 15.768428 16.865234 15.88183 16.865234 15.998047 C 16.865198 18.692047 14.693928 20.865234 12 20.865234 C 9.3060711 20.865234 7.1348016 18.692047 7.1347656 15.998047 C 7.1347456 13.304047 9.3060309 11.134766 12 11.134766 z M 14.984375 12.560547 L 16.214844 14.693359 L 13.46875 14.857422 L 14.984375 12.560547 z M 11.978516 13.943359 C 12.25742 13.943359 12.521125 14.003539 12.761719 14.109375 L 12.154297 15.03125 C 12.102045 15.022598 12.054449 15 12 15 C 11.453638 15 11 15.4537 11 16 C 11 16.5464 11.453638 17 12 17 C 12.546362 17 13 16.5464 13 16 C 13 15.95999 12.981293 15.92559 12.976562 15.886719 L 13.943359 15.830078 C 13.946659 15.878078 13.957031 15.923728 13.957031 15.972656 C 13.957032 17.104653 13.071759 18 11.978516 18 C 10.885303 18 10.00002 17.104656 10 15.972656 C 10.00002 14.840956 10.885351 13.943359 11.978516 13.943359 z " color="#000" enable-background="accumulate" font-family="sans-serif" font-weight="400" letter-spacing="0" overflow="visible" word-spacing="0" style="line-height:125%;text-indent:0;text-align:start;text-decoration-line:none;text-decoration-style:solid;text-decoration-color:#000;text-transform:none;block-progression:tb;white-space:normal;isolation:auto;mix-blend-mode:normal;solid-color:#000;solid-opacity:1" fill="#f99f31" class="color000 svgShape"></path></svg></g></svg>