<svg id="SvgjsSvg1001" width="288" height="288" xmlns="http://www.w3.org/2000/svg" version="1.1" xmlns:xlink="http://www.w3.org/1999/xlink" xmlns:svgjs="http://svgjs.com/svgjs"><defs id="SvgjsDefs1002"></defs><g id="SvgjsG1008" transform="matrix(1,0,0,1,0,0)"><svg xmlns="http://www.w3.org/2000/svg" data-name="Layer 2" viewBox="0 0 35 35" width="288" height="288"><path d="M17.5,34.32a3.29,3.29,0,0,1-2.35-1l-7.95-8a14.56,14.56,0,0,1-3.78-6.32,14.81,14.81,0,0,1-.5-3.81A14.58,14.58,0,1,1,31.6,19a14.5,14.5,0,0,1-3.82,6.44l-1.42,1.42h0l-6.52,6.52A3.28,3.28,0,0,1,17.5,34.32Zm0-31.14a11.91,11.91,0,0,0-8,3.09,12.1,12.1,0,0,0-4,9,11.9,11.9,0,0,0,.42,3.15A12,12,0,0,0,9,23.63l7.94,8a.83.83,0,0,0,1.15,0L26,23.65a12,12,0,0,0,3.19-5.32A12.09,12.09,0,0,0,18.84,3.25,12.39,12.39,0,0,0,17.48,3.18Zm8,22.76h0Z" fill="#252a2e" class="color000 svgShape"></path><path d="M17.5,20.18a5.25,5.25,0,1,1,5.25-5.25A5.26,5.26,0,0,1,17.5,20.18Zm0-8a2.75,2.75,0,1,0,2.75,2.75A2.75,2.75,0,0,0,17.5,12.18Z" fill="#252a2e" class="color000 svgShape"></path></svg></g></svg>