<svg id="SvgjsSvg1012" width="288" height="288" xmlns="http://www.w3.org/2000/svg" version="1.1" xmlns:xlink="http://www.w3.org/1999/xlink" xmlns:svgjs="http://svgjs.com/svgjs"><defs id="SvgjsDefs1013"></defs><g id="SvgjsG1014" transform="matrix(1,0,0,1,0,0)"><svg xmlns="http://www.w3.org/2000/svg" viewBox="0 0 24 24" width="288" height="288"><path d="M13,21a1,1,0,0,0,0,2h8a1,1,0,0,0,1-1V2a1,1,0,0,0-1-1H13a1,1,0,0,0,0,2h7V21Z" fill="#252a2e" class="color000 svgShape"></path><path d="M2,12a1,1,0,0,0,1,1H14.586l-2.293,2.293a1,1,0,1,0,1.414,1.414l4-4a1,1,0,0,0,0-1.414l-4-4a1,1,0,1,0-1.414,1.414L14.586,11H3A1,1,0,0,0,2,12Z" fill="#252a2e" class="color000 svgShape"></path></svg></g></svg>